<mxfile host="app.diagrams.net" modified="2021-05-18T04:34:33.787Z" agent="5.0 (Windows NT 10.0; Win64; x64) AppleWebKit/537.36 (KHTML, like Gecko) Chrome/90.0.4430.212 Safari/537.36" etag="5kaeTyyY_9T3trj5Jae5" version="14.2.9" type="github">
  <diagram id="B8d_6DvDPMdlBQcZ8i8d" name="Page-1">
    <mxGraphModel dx="1673" dy="896" grid="1" gridSize="10" guides="1" tooltips="1" connect="1" arrows="1" fold="1" page="1" pageScale="1" pageWidth="1654" pageHeight="1169" math="0" shadow="0">
      <root>
        <mxCell id="0" />
        <mxCell id="1" parent="0" />
        <mxCell id="9Yd9vikefjvU3ahJ1IXX-4" style="edgeStyle=orthogonalEdgeStyle;rounded=0;orthogonalLoop=1;jettySize=auto;html=1;entryX=0;entryY=0.5;entryDx=0;entryDy=0;fontSize=30;" edge="1" parent="1" source="9Yd9vikefjvU3ahJ1IXX-1" target="9Yd9vikefjvU3ahJ1IXX-3">
          <mxGeometry relative="1" as="geometry" />
        </mxCell>
        <mxCell id="9Yd9vikefjvU3ahJ1IXX-1" value="&lt;font style=&quot;font-size: 18px&quot;&gt;Take basic&amp;nbsp; details license number name address contact no specialization&amp;nbsp; and other details&lt;/font&gt;" style="rounded=0;whiteSpace=wrap;html=1;" vertex="1" parent="1">
          <mxGeometry x="80" y="200" width="270" height="110" as="geometry" />
        </mxCell>
        <mxCell id="9Yd9vikefjvU3ahJ1IXX-2" value="&lt;font style=&quot;font-size: 30px;&quot;&gt;Doctor Flow&lt;/font&gt;" style="text;html=1;strokeColor=none;fillColor=none;align=center;verticalAlign=middle;whiteSpace=wrap;rounded=0;fontSize=30;" vertex="1" parent="1">
          <mxGeometry x="200" y="120" width="190" height="30" as="geometry" />
        </mxCell>
        <mxCell id="9Yd9vikefjvU3ahJ1IXX-3" value="&lt;font style=&quot;font-size: 20px;&quot;&gt;Dashboard where doc can set no of patients to attend&amp;nbsp;&lt;/font&gt;" style="rounded=0;whiteSpace=wrap;html=1;fontSize=20;" vertex="1" parent="1">
          <mxGeometry x="530" y="200" width="200" height="110" as="geometry" />
        </mxCell>
      </root>
    </mxGraphModel>
  </diagram>
</mxfile>
